<?xml version="1.0" encoding="utf-8"?>
<!-- Uploaded to: SVG Repo, www.svgrepo.com, Generator: SVG Repo Mixer Tools -->
<svg width="800px" height="800px" viewBox="-40.62 0 412.071 412.071" xmlns="http://www.w3.org/2000/svg"><defs><style>.a{fill:#211715;}.b{fill:#ffffff;}.c{fill:#7a7473;}.d{fill:#ffda71;}.e{fill:#79acd9;}.f{fill:#b5886a;}.g{fill:#d9d9d9;}</style></defs><path class="a" d="M138.946,338.671q-11.356,10.653-22.436,21.6c-3.1,3.067-6.2,6.3-7.875,10.4-1.789,4.392-1.006,8.962,1.179,13.054a58.045,58.045,0,0,0,4.253,6.4l5.267,7.334a2.468,2.468,0,0,0,3.283.861,2.42,2.42,0,0,0,.861-3.284c-2.746-3.824-5.648-7.579-8.207-11.533-2.152-3.324-3.694-6.921-2.283-10.852,1.282-3.57,4.285-6.392,6.916-8.993q5.191-5.132,10.447-10.2,5.955-5.74,11.989-11.4c2.258-2.118-1.141-5.507-3.394-3.395Z"/><path class="a" d="M287.252,342.066q10.647,9.986,21.051,20.227c2.844,2.8,5.937,5.585,7.782,9.187s1.077,7.2-.865,10.565c-2.627,4.554-6.043,8.728-9.106,12.993a2.421,2.421,0,0,0,.861,3.284,2.453,2.453,0,0,0,3.284-.861c2.907-4.048,6.057-8.01,8.666-12.258,2.43-3.955,3.87-8.5,2.541-13.1-1.21-4.192-4.2-7.618-7.2-10.657-3.584-3.622-7.262-7.156-10.928-10.695q-6.3-6.084-12.69-12.075c-2.251-2.112-5.653,1.276-3.394,3.395Z"/><path class="b" d="M89.26,45.969c6.336-3.76,15.017-6.341,26.865-6.341,43.415,0,41.962,34.89,41.962,34.89a6.349,6.349,0,0,1,5.085-1.488,6,6,0,0,1,4.315,2.868,8.477,8.477,0,0,1,.888,3.414,25.425,25.425,0,0,1-2.592,13.478,16.163,16.163,0,0,1-4.179,5.484,10.7,10.7,0,0,1-4.983,2.246l-.853.133c-.409,1.53-.868,2.819-1.093,3.5-1.406,3.816-9.075,16.733-18.848,22.052a54.257,54.257,0,0,0,.862,9.73c.49,2.793.336,5.29,4.219,6.692.257.093,1.869.768,2.344.971l1.179.5c-7.045,6.837-15.829,9.689-25.761,9.67-9.548-.018-21.28-6.385-28.632-13.224,1.642-1.712,1.673-3.946,2.095-6.359a67.618,67.618,0,0,0,1.007-9.2,40.036,40.036,0,0,1-9.019-8.132,43.234,43.234,0,0,1-8.241-16.088c-1.01-.153-1.624-.248-1.624-.248a10.7,10.7,0,0,1-4.983-2.246,16.163,16.163,0,0,1-4.179-5.484A25.425,25.425,0,0,1,62.5,79.312,8.477,8.477,0,0,1,63.39,75.9a6,6,0,0,1,4.315-2.868,6.349,6.349,0,0,1,5.085,1.488,23.476,23.476,0,0,1,.021-2.529A33.414,33.414,0,0,1,89.26,45.969Z"/><path class="c" d="M163.788,73.156a4.967,4.967,0,0,1,.49.154c3.162-8.118,3.625-19.88-.366-31.039-2.806-7.845-9.5-16.048-14.769-18.356l-7.6-5.418c-4.765-9.563-11.587-12.6-19.765-14.785s-19.259-1.778-25.63,2.37c0,0,1.9,1.43,3.865,2.9a59.129,59.129,0,0,0-17.9,5.844A30.575,30.575,0,0,0,68,28.749l4.989.54c-3.724,4.051-5.025,6.76-7.063,11.46-3.078,7.1-3.049,17.526-1.606,25.682l2.245,6.892a5.569,5.569,0,0,1,1.144-.293,6.447,6.447,0,0,1,4.332.916c3.922-.231,6.252-3.818,7.746-7.45,1.184-2.879,2.028-5.977,3.684-8.542s3.895-3.374,7.183-3.9c3.931-.631,7.127-.211,21.408.074,7.049.141,18.506-6.743,23.852-3.925a36.356,36.356,0,0,1,12.5,10.1c3.015,3.678,7.764,13.53,8.17,15.138l.089.354,1.418-1.279a6.349,6.349,0,0,1,5.085-1.488A5.847,5.847,0,0,1,163.788,73.156Z"/><path class="a" d="M133.429,127.257a60.27,60.27,0,0,0,.65,7.469,35.36,35.36,0,0,0,.87,4.992,7.425,7.425,0,0,0,3.278,4.293,16.114,16.114,0,0,0,2.417,1.082c.327.132.653.269.979.405l.42.176c.249.1-.506-.216,0,0a2.482,2.482,0,0,0,3.284-.861,2.416,2.416,0,0,0-.861-3.283q-1.041-.444-2.085-.876c-.23-.095-.459-.191-.69-.282a3.236,3.236,0,0,1-.532-.222c-.2-.11-.4-.228-.6-.34-.382-.213.077.1-.1-.056-.122-.106-.241-.213-.353-.329-.147-.153-.3-.5-.082-.075-.131-.256-.293-.494-.42-.755.284.584-.064-.3-.112-.488-.367-1.461-.537-3.013-.756-4.5a51.444,51.444,0,0,1-.5-6.348,2.4,2.4,0,0,0-4.8,0Z"/><path class="a" d="M87.591,144.726a10.191,10.191,0,0,0,4.884-3.385,9.373,9.373,0,0,0,1.555-3.882,88.477,88.477,0,0,0,1.513-12.477,2.4,2.4,0,0,0-4.8,0A90.315,90.315,0,0,1,89.5,135.618a15.127,15.127,0,0,1-.343,1.657c-.074.264-.168.519-.258.779.18-.519-.095.154-.2.325-.064.106-.135.207-.2.311-.14.22.281-.268-.039.038-.095.091-.181.193-.276.285,0,0-.45.39-.236.221.2-.154-.17.113-.207.137-.168.107-.336.211-.51.307a6.409,6.409,0,0,1-.914.419,2.466,2.466,0,0,0-1.676,2.953,2.419,2.419,0,0,0,2.952,1.676Z"/><path class="a" d="M154.156,95.789a21.343,21.343,0,0,1-1.022,5.349c-.2.669-.42,1.332-.644,1.993-.056.165-.118.33-.171.5-.175.549.14-.291-.011.042a43.968,43.968,0,0,1-2.807,5.13,50.247,50.247,0,0,1-11.129,12.862,21.148,21.148,0,0,1-8.255,4.187c-3.008.7-1.734,5.327,1.276,4.629,6.394-1.482,11.764-6.04,16-10.859a55.3,55.3,0,0,0,8.935-13.25,28.657,28.657,0,0,0,2.628-10.579c.112-3.09-4.688-3.085-4.8,0Z"/><path class="a" d="M74.487,72.82a8.8,8.8,0,0,0-10.954-.572c-3.508,2.606-3.774,7.275-3.433,11.3.666,7.873,4.814,17.743,13.518,19.287a2.468,2.468,0,0,0,2.952-1.677,2.42,2.42,0,0,0-1.676-2.952c-6.048-1.072-8.844-7.641-9.793-13.08a22.149,22.149,0,0,1-.279-4.477,7.34,7.34,0,0,1,.729-3.686,3.846,3.846,0,0,1,5.542-.748,2.466,2.466,0,0,0,3.394,0,2.42,2.42,0,0,0,0-3.4Z"/><path class="a" d="M72.2,95.308c2.344,13.488,9.7,26.726,22.227,33.194a30.47,30.47,0,0,0,10.9,3.237,2.415,2.415,0,0,0,2.4-2.4,2.454,2.454,0,0,0-2.4-2.4c-7.914-.832-14.552-5.83-19.509-11.78-5-6-7.67-13.517-8.992-21.127a2.421,2.421,0,0,0-2.952-1.677A2.456,2.456,0,0,0,72.2,95.308Z"/><path class="a" d="M147.931,25.988c5.344,2.42,9.313,8.052,11.956,13.085a43.3,43.3,0,0,1,4.468,21.207A38.977,38.977,0,0,1,162.526,71.1c-.952,2.946,3.681,4.208,4.628,1.276a47.112,47.112,0,0,0-8.51-43.675,24.838,24.838,0,0,0-8.29-6.862,2.474,2.474,0,0,0-3.284.861,2.421,2.421,0,0,0,.861,3.284Z"/><path class="a" d="M109.562,111.137a17.324,17.324,0,0,0,8.344,1.937,13.633,13.633,0,0,0,8.473-2.522,2.4,2.4,0,0,0,0-3.394,2.475,2.475,0,0,0-3.394,0c.741-.578.223-.176.032-.054q-.247.159-.508.294c-.234.124-.773.234-.122.081-.235.055-.469.18-.7.254a13.015,13.015,0,0,1-1.959.448c.361-.057.1-.015-.116.006q-.288.029-.577.048c-.464.03-.928.042-1.393.039-.416,0-.832-.017-1.247-.045-.19-.013-.381-.028-.571-.048-.076-.007-.772-.126-.2-.02a17.628,17.628,0,0,1-1.83-.406c-.256-.077-.506-.169-.759-.255-.59-.2.418.208-.115-.043-.314-.148-.623-.3-.93-.465a2.4,2.4,0,0,0-2.423,4.145Z"/><path class="a" d="M116.564,91.639a38.719,38.719,0,0,1,.907,4.148l-.086-.638a2.488,2.488,0,0,1,.015.572l.086-.638a1.35,1.35,0,0,1-.063.258l.242-.574a.994.994,0,0,1-.091.166l.375-.486a.855.855,0,0,1-.135.134l.486-.375a2.712,2.712,0,0,1-.329.173l.574-.242a2.394,2.394,0,0,1-.554.162l.638-.086a2.154,2.154,0,0,1-.52,0l.638.086c-.2-.027-.388-.075-.584-.1a1.812,1.812,0,0,0-.957-.043,1.778,1.778,0,0,0-.893.285,2.4,2.4,0,0,0-.861,3.283,2.3,2.3,0,0,0,1.435,1.1c.47.064.926.183,1.405.2a4.534,4.534,0,0,0,2.1-.5,3.093,3.093,0,0,0,1.7-2.032,4.988,4.988,0,0,0-.02-2.158c-.226-1.336-.535-2.66-.879-3.971a2.4,2.4,0,0,0-2.952-1.676,2.446,2.446,0,0,0-1.676,2.952Z"/><path class="a" d="M94.9,79.82c-.692,2.251-.241,7.429,4.024,7.87,5.636-.034,5.936-6.294,4.038-9.238C101.405,76.042,96.837,75.04,94.9,79.82Z"/><path class="a" d="M140.03,79.82c.693,2.251.242,7.429-4.023,7.87-5.636-.034-5.936-6.294-4.039-9.238C133.522,76.042,138.089,75.04,140.03,79.82Z"/><path class="a" d="M123.5,44.278c-.195.329-.4.651-.616.966-.1.146-.2.288-.306.432-.257.359.09-.1-.081.108a22.139,22.139,0,0,1-1.533,1.707c-.551.551-1.131,1.073-1.732,1.568q-.216.178-.436.351c.266-.208-.013.008-.135.1q-.492.363-1,.7a25.978,25.978,0,0,1-3.834,2.109c-.267.12.351-.133-.078.028-.184.069-.367.141-.552.207-.3.107-.6.207-.905.3s-.585.164-.881.232c-.17.039-.342.075-.514.106-.156.029-.7.106-.027.018a2.465,2.465,0,0,0-2.4,2.4c.052,1.16,1.066,2.575,2.4,2.4a21.781,21.781,0,0,0,9.214-3.652,24.527,24.527,0,0,0,7.56-7.655,2.4,2.4,0,1,0-4.145-2.423Z"/><path class="a" d="M107.9,41.407c-.115.391-.239.778-.382,1.161-.064.172-.13.345-.2.515.132-.318,0-.017-.069.135a18.58,18.58,0,0,1-1.112,2.036q-.3.471-.615.926c-.128.182-.261.362-.393.541-.254.345.059-.067-.1.134-.5.613-1.011,1.209-1.553,1.783a40.244,40.244,0,0,1-3.4,3.17q-.9.758-1.836,1.48c.369-.287-.2.15-.218.166l-.351.265q-.522.393-1.049.78a2.459,2.459,0,0,0-.861,3.283,2.427,2.427,0,0,0,3.284.861c5.64-4.154,11.435-8.973,13.486-15.96a2.4,2.4,0,0,0-4.629-1.276Z"/><path class="a" d="M90.65,51.652a13.043,13.043,0,0,0-6.437,2.08,13.772,13.772,0,0,0-4.335,5.929c-1,2.3-1.714,4.794-2.783,7.007-.966,2-2.086,3.736-4.026,4.661a2.422,2.422,0,0,0-.861,3.284,2.451,2.451,0,0,0,3.283.861c4.555-2.172,6.28-7.413,7.914-11.789.719-1.925,1.613-4.167,2.893-5.463a2.868,2.868,0,0,1,.83-.685c.17-.107.345-.2.521-.3.1-.054.5-.236.2-.113a11.05,11.05,0,0,1,2.8-.674,2.47,2.47,0,0,0,2.4-2.4,2.416,2.416,0,0,0-2.4-2.4Z"/><path class="a" d="M134.7,52.273a29.927,29.927,0,0,1,7.566,4.875,34.822,34.822,0,0,1,5.62,6.535,77.265,77.265,0,0,1,4.158,7.437c.55,1.1,1.085,2.207,1.587,3.33q.133.3.263.6c.19.437-.123-.361.105.262.095.257.2.509.269.773.81,2.978,5.442,1.714,4.628-1.276a33.96,33.96,0,0,0-2.639-5.97,75.249,75.249,0,0,0-4.381-7.811,36.392,36.392,0,0,0-14.753-12.9,2.466,2.466,0,0,0-3.284.861,2.422,2.422,0,0,0,.861,3.284Z"/><path class="a" d="M71.929,26.9A39.372,39.372,0,0,0,62.138,44.65C60.422,51.961,60.725,59.717,62,67.069a2.421,2.421,0,0,0,2.952,1.677,2.456,2.456,0,0,0,1.677-2.953,50.422,50.422,0,0,1,.135-19.867A34.512,34.512,0,0,1,75.323,30.3c2.118-2.247-1.27-5.648-3.394-3.395Z"/><path class="a" d="M103.073,6.378c-7.486.064-15.138,2.831-21.758,6.159a34.468,34.468,0,0,0-15.391,15C64.5,30.274,68.64,32.7,70.069,29.96A30.125,30.125,0,0,1,83.738,16.682c5.86-2.946,12.711-5.448,19.335-5.5,3.087-.026,3.094-4.826,0-4.8Z"/><path class="a" d="M143.612,17.285A28.475,28.475,0,0,0,128.427,3.342,44.891,44.891,0,0,0,106.932.249a27.892,27.892,0,0,0-12,3.761c-2.6,1.653-.194,5.809,2.423,4.144,5.534-3.521,12.968-3.852,19.3-3.023C122.2,5.858,128.3,7.7,132.781,11.16a24.558,24.558,0,0,1,6.686,8.548c1.394,2.757,5.537.33,4.145-2.423Z"/><path class="d" d="M267.189,69.315a.736.736,0,0,0-1.43-.006c-1.177,4.886-3.44,9.77-8.093,11.7a22.849,22.849,0,0,1-3.07,1.066.736.736,0,0,0,0,1.425,22.641,22.641,0,0,1,3.07,1.065c4.767,1.974,6.416,6.555,7.657,11.8a.738.738,0,0,0,1.439-.007c1.208-5.2,3.351-9.818,8.108-11.788a22.641,22.641,0,0,1,3.07-1.065.736.736,0,0,0,0-1.425,22.8,22.8,0,0,1-3.07-1.066C270.208,79.075,268.348,74.24,267.189,69.315Z"/><path class="d" d="M316.338,196.172a.944.944,0,0,0-1.834-.008c-1.508,6.263-4.409,12.523-10.372,14.993a29.381,29.381,0,0,1-3.935,1.365.944.944,0,0,0,0,1.827,29.1,29.1,0,0,1,3.935,1.365c6.11,2.531,8.223,8.4,9.814,15.118a.945.945,0,0,0,1.844-.009c1.549-6.67,4.295-12.584,10.392-15.109a29.093,29.093,0,0,1,3.934-1.365.944.944,0,0,0,0-1.827,29.381,29.381,0,0,1-3.935-1.365C320.207,208.681,317.822,202.484,316.338,196.172Z"/><path class="e" d="M167.172,282.98c-16.346,0-78.135-.036-110.721-.052.164-4.082.327-8.269.488-12.5l-22.78-92.316q1.575-4.625,3.624-9.324c2.1-4.844,5.682-14.409,13.782-19.159,10.908-6.4,25.265-5.6,36.78-10.733a38.81,38.81,0,0,0,30.325,14.88c10.314.019,19.094-2.768,26.272-10.174l.294-.289a63.492,63.492,0,0,1,7.806,3.955s44.255,22.282,38.954,76S167.172,282.98,167.172,282.98Z"/><path class="f" d="M161.213,164.4c-.532-18.908,5.713-36.662,16.023-46.745,6.215-6.078,20.22-14.359,35.955-14.359a56.061,56.061,0,0,1,22.84,4.47l7.026,3.627c3.045,1.833,4.131,3.4,7.264,6.492,7.867,7.754,13.335,21.7,14.206,34.2a155.623,155.623,0,0,1,.343,18.549,263.459,263.459,0,0,0,2.978,32.935c.841,5.834.174,11.865-3.6,16.2-4.934,5.668-14.248,7.945-21.8,5.056L188,226.6c-6.815,1.926-19.111,1.7-25.111-8.888-2.738-4.834-1.185-18.778-.555-24,.792-6.573-.037-16.445-1.05-29.315"/><path class="a" d="M236.669,105.448a60.883,60.883,0,0,0-22.764-4.551,55.847,55.847,0,0,0-24.168,5.545,49.73,49.73,0,0,0-15.828,11.208,55.738,55.738,0,0,0-10.935,19.056,77.761,77.761,0,0,0-4.161,27.691c.078,3.083,4.878,3.095,4.8,0-.365-14.362,2.929-30.112,12.134-41.532a43.239,43.239,0,0,1,13.736-10.941A51.589,51.589,0,0,1,211,105.747a56.6,56.6,0,0,1,24.4,4.33,2.416,2.416,0,0,0,2.953-1.676,2.462,2.462,0,0,0-1.677-2.953Z"/><path class="a" d="M267.2,171.55a108.362,108.362,0,0,0,.064-13.57,97.687,97.687,0,0,0-1.081-12.017,59.068,59.068,0,0,0-11.137-26.345,70.307,70.307,0,0,0-5.122-5.56,29.128,29.128,0,0,0-5.655-4.74c-2.641-1.62-5.055,2.53-2.423,4.145a22.109,22.109,0,0,1,4.3,3.6c1.508,1.551,3.087,3.044,4.486,4.7a45.561,45.561,0,0,1,6.633,11,60.666,60.666,0,0,1,4.037,13.1,78.661,78.661,0,0,1,1.111,11.089,112.236,112.236,0,0,1-.016,14.6,2.419,2.419,0,0,0,2.4,2.4,2.45,2.45,0,0,0,2.4-2.4Z"/><path class="a" d="M158.88,164.4c.571,7.258,1.263,14.536,1.357,21.82.063,4.862-.636,9.607-1.012,14.44-.406,5.22-.92,11.166.724,16.231,1.79,5.51,6.992,9.665,12.272,11.589a27.486,27.486,0,0,0,16.413.438c2.973-.824,1.711-5.456-1.276-4.629a23.017,23.017,0,0,1-12.442.023,16.105,16.105,0,0,1-8.788-5.978,16.146,16.146,0,0,1-1.171-1.831c-.095-.177-.188-.354-.271-.538.216.483-.115-.368-.143-.46-1.38-4.391-.9-9.8-.542-14.532.342-4.545,1.048-9.033,1.044-13.6-.006-7.667-.764-15.336-1.365-22.972a2.46,2.46,0,0,0-2.4-2.4,2.419,2.419,0,0,0-2.4,2.4Z"/><path class="a" d="M262.328,164.4a284.587,284.587,0,0,0,2.141,32.174c.429,3.332,1.12,6.694,1.272,10.053.248,5.47-1.335,10.856-6.087,14.011a18.508,18.508,0,0,1-16.575,1.873,2.423,2.423,0,0,0-2.953,1.677,2.452,2.452,0,0,0,1.677,2.952,23.284,23.284,0,0,0,17.648-.9A18.613,18.613,0,0,0,270.2,212.279c.752-4.638-.022-9.116-.658-13.7q-.074-.528-.145-1.057c.059.438-.1-.74-.124-.95q-.194-1.509-.369-3.022-.417-3.606-.727-7.224c-.626-7.293-.94-14.61-1.045-21.928-.045-3.086-4.845-3.095-4.8,0Z"/><path class="b" d="M173.189,168.545a6.1,6.1,0,0,0-4.883-1.428,5.758,5.758,0,0,0-4.142,2.754,8.13,8.13,0,0,0-.853,3.277,24.408,24.408,0,0,0,2.489,12.94,15.513,15.513,0,0,0,4.012,5.265,9.819,9.819,0,0,0,6.3,2.248,41.585,41.585,0,0,0,7.953,15.591,34.839,34.839,0,0,0,12.968,10.083,52.31,52.31,0,0,1-.8,6.792c-.489,2.794-.336,5.292-4.221,6.695-.257.092-12.545,5.84-13.294,6.095,0,0-.225.077-.581.2a83.513,83.513,0,0,0,35.109,8.509c12.163.048,28.133-4.178,36.563-8.962l-.829-.342c-.393-.161-11.412-5.4-11.669-5.5-3.885-1.4-3.732-3.9-4.221-6.695a56.846,56.846,0,0,1-.813-7.186c10.058-4.548,18.107-18.033,19.525-21.881.216-.657.657-1.893,1.054-3.366l.815-.125a10.284,10.284,0,0,0,4.784-2.156,15.511,15.511,0,0,0,4.011-5.265,24.408,24.408,0,0,0,2.489-12.94,8.145,8.145,0,0,0-.852-3.277,5.762,5.762,0,0,0-4.143-2.754,6.032,6.032,0,0,0-5.107,1.652c-6.8-2.255-14.9-13.017-17.515-17.913a57.986,57.986,0,0,1-5.674-13.2c-7.568,9.831-11.885,14.2-23.815,17.611-7.111.741-13.778,1.222-20,1.778-3.852,3.111-4.852,4.222-8.592,7.555Z"/><path class="a" d="M194.6,220a52.184,52.184,0,0,1-.645,5.243,31.2,31.2,0,0,1-.578,3.23c-.047.165-.328.816-.09.337-.1.205-.217.4-.332.595-.174.3.254-.261.008,0-.073.076-.141.156-.216.23a3.5,3.5,0,0,1-.326.294c.268-.208-.093.042-.2.1-.57.326-1.136.528-1.777.82-3.078,1.4-6.136,2.846-9.209,4.26q-1.191.548-2.384,1.089c-.283.128-.568.253-.852.381-.563.253.592-.219.087-.039A2.462,2.462,0,0,0,176.4,239.5a2.42,2.42,0,0,0,2.952,1.676c1.25-.447,2.46-1.072,3.665-1.625q2.833-1.3,5.661-2.616,2.09-.968,4.179-1.934a3.623,3.623,0,0,0,.336-.151s-.89.357-.4.176c.239-.089.474-.19.708-.29a9.064,9.064,0,0,0,1.244-.619,7.377,7.377,0,0,0,3-3.627,17.1,17.1,0,0,0,.763-3.566c.379-2.3.726-4.592.885-6.916a2.4,2.4,0,0,0-4.8,0Z"/><path class="a" d="M229.88,218.973a72.462,72.462,0,0,0,1.252,9.963,7.91,7.91,0,0,0,5.241,6.027c.829.329-.64-.314-.051-.029.2.1.413.192.619.289q.975.456,1.947.917l5.271,2.494c1.2.567,2.388,1.176,3.608,1.7a2.482,2.482,0,0,0,3.284-.861,2.417,2.417,0,0,0-.861-3.284c-2.588-1.1-5.106-2.406-7.649-3.609-1.234-.584-2.464-1.18-3.707-1.746-.669-.3-1.248-.531-1.869-.885,0,0-.334-.234-.155-.095s-.157-.148-.2-.184c-.08-.074-.151-.156-.227-.234.066.068.226.375-.006-.007-.1-.172-.2-.345-.3-.521.243.436-.063-.188-.112-.355a31.045,31.045,0,0,1-.662-3.679,52.535,52.535,0,0,1-.628-5.9,2.452,2.452,0,0,0-2.4-2.4,2.422,2.422,0,0,0-2.4,2.4Z"/><path class="a" d="M256.774,170.242a3.627,3.627,0,0,1,5.072.538,6.685,6.685,0,0,1,.786,3.695,21.1,21.1,0,0,1-.3,4.433c-.94,5.132-3.6,11.276-9.3,12.287a2.42,2.42,0,0,0-1.676,2.952,2.452,2.452,0,0,0,2.952,1.676c8.357-1.482,12.353-10.91,13.036-18.473.349-3.862.126-8.42-3.2-10.969a8.546,8.546,0,0,0-10.76.467,2.419,2.419,0,0,0,0,3.394,2.451,2.451,0,0,0,3.394,0Z"/><path class="a" d="M251.207,188.967a20.475,20.475,0,0,1-.99,5.151c-.188.622-.391,1.239-.6,1.854-.056.166-.118.332-.171.5-.176.549.139-.289-.014.045a43.248,43.248,0,0,1-2.731,4.973,47.975,47.975,0,0,1-10.655,12.276,20.209,20.209,0,0,1-7.846,3.968c-3.008.7-1.735,5.328,1.276,4.628,6.135-1.424,11.292-5.784,15.363-10.406a53.354,53.354,0,0,0,8.612-12.737,27.672,27.672,0,0,0,2.556-10.251c.115-3.09-4.685-3.085-4.8,0Z"/><path class="a" d="M174.886,166.848a8.552,8.552,0,0,0-10.518-.655c-3.523,2.546-3.808,7.159-3.447,11.157.683,7.563,4.679,16.991,13.036,18.473a2.468,2.468,0,0,0,2.953-1.676,2.421,2.421,0,0,0-1.677-2.952c-5.7-1.011-8.357-7.155-9.3-12.287a20.924,20.924,0,0,1-.306-4.212,7.434,7.434,0,0,1,.7-3.765,3.594,3.594,0,0,1,5.163-.689,2.466,2.466,0,0,0,3.395,0,2.421,2.421,0,0,0,0-3.394Z"/><path class="a" d="M172.941,190.714a45.955,45.955,0,0,0,10.827,21.774c5.475,5.976,12.514,10.23,20.657,11.088a2.415,2.415,0,0,0,2.4-2.4,2.456,2.456,0,0,0-2.4-2.4c-6.983-.736-12.957-4.891-17.546-9.994a41.246,41.246,0,0,1-9.309-19.344c-.64-3.02-5.268-1.742-4.629,1.276Z"/><path class="a" d="M229.349,138.294a58.781,58.781,0,0,0,9.445,19.212c3.967,5.372,9.051,11.54,15.645,13.649,2.949.943,4.211-3.69,1.276-4.629-2.416-.772-4.858-2.761-6.834-4.655a53.728,53.728,0,0,1-6.32-7.3,54.973,54.973,0,0,1-8.584-17.55c-.8-2.979-5.435-1.715-4.628,1.276Z"/><path class="a" d="M229.591,136.445c-4.137,5.365-8.418,10.5-14.5,13.567a36.768,36.768,0,0,1-4.626,1.92c-.886.306-1.782.611-2.688.855a23.416,23.416,0,0,1-3.856.469c-4.992.471-9.992.856-14.987,1.293a5.453,5.453,0,0,0-2.3.424,13.91,13.91,0,0,0-1.688,1.357q-1.233,1.021-2.433,2.082c-1.667,1.48-3.294,3.006-4.958,4.491-2.308,2.062,1.1,5.447,3.4,3.4,2.848-2.544,5.623-5.151,8.592-7.556l-1.7.7c4.16-.37,8.323-.7,12.484-1.062q3.265-.288,6.527-.614a22.951,22.951,0,0,0,5.392-1.385,37.161,37.161,0,0,0,14.435-9.07,95.166,95.166,0,0,0,7.049-8.447,2.413,2.413,0,0,0-.861-3.283,2.46,2.46,0,0,0-3.283.861Z"/><path class="a" d="M206.256,201.582a16.65,16.65,0,0,0,8.014,1.862,13.117,13.117,0,0,0,8.16-2.437,2.4,2.4,0,0,0,0-3.4,2.476,2.476,0,0,0-3.394,0c.747-.581.245-.191.053-.068-.157.1-.319.194-.484.28-.216.114-.78.26-.09.066-.225.064-.444.171-.668.243a12.706,12.706,0,0,1-1.869.426c.353-.057.161-.021-.08,0-.184.018-.367.033-.551.045-.442.029-.885.04-1.328.037q-.6,0-1.19-.043c-.182-.012-.363-.027-.545-.045-.093-.009-.759-.129-.165-.015a17.6,17.6,0,0,1-1.746-.388c-.245-.073-.483-.161-.725-.243-.578-.2.441.217-.082-.03-.3-.141-.595-.288-.888-.443a2.4,2.4,0,0,0-2.422,4.145Z"/><path class="a" d="M212.883,182.918a36.651,36.651,0,0,1,.865,3.956l-.086-.638a2.322,2.322,0,0,1,.015.546l.086-.638a1.4,1.4,0,0,1-.06.246l.242-.574a1.008,1.008,0,0,1-.087.158l.375-.486a.781.781,0,0,1-.129.128l.486-.375a2.527,2.527,0,0,1-.313.165l.573-.241a2.384,2.384,0,0,1-.528.154l.638-.086a2.11,2.11,0,0,1-.5,0l.638.086c-.187-.026-.37-.072-.557-.1a1.823,1.823,0,0,0-.957-.043,1.8,1.8,0,0,0-.893.285,2.4,2.4,0,0,0-.861,3.284,2.3,2.3,0,0,0,1.435,1.1c.458.061.9.177,1.369.2a4.435,4.435,0,0,0,2.061-.5,3.057,3.057,0,0,0,1.67-2,4.878,4.878,0,0,0-.019-2.117c-.216-1.275-.51-2.538-.838-3.788a2.4,2.4,0,0,0-2.952-1.677,2.447,2.447,0,0,0-1.677,2.953Z"/><path class="a" d="M192.323,171.615c-.661,2.147-.23,7.086,3.837,7.506,5.376-.032,5.662-6,3.853-8.811C198.531,168.012,194.174,167.056,192.323,171.615Z"/><path class="a" d="M235.373,171.615c.661,2.147.23,7.086-3.837,7.506-5.376-.032-5.662-6-3.853-8.811C229.165,168.012,233.522,167.056,235.373,171.615Z"/><path class="b" d="M24.411,266.461c15-1.733,98.774-9.144,119.017-11.549-2.217-20.255-7.783-76.589-10.23-90.375-18.961,2.022-94.149,8.545-116.083,9.962C16.993,187.26,24.055,261.875,24.411,266.461Z"/><path class="g" d="M37.713,195l3.093-4.015a1.791,1.791,0,0,0,.285-.892,1.823,1.823,0,0,0-.043-.957,2.4,2.4,0,0,0-2.952-1.676l-.574.242a2.416,2.416,0,0,0-.861.861l-3.092,4.014a1.777,1.777,0,0,0-.285.892,1.823,1.823,0,0,0,.043.957,2.4,2.4,0,0,0,2.952,1.677l.573-.242a2.416,2.416,0,0,0,.861-.861Z"/><path class="g" d="M120.937,246.253c-3.888-8.8-11.021-20.331-17.752-17-6.9,1.072-16.691,2.243-18.83,2.5-4.037,2.074-6.993,6.138-8.922,10a26.631,26.631,0,0,0-2.916,9.506Z"/><path class="g" d="M36.881,211.041a275.427,275.427,0,0,1,20.842-25.827c2.076-2.279-1.309-5.683-3.394-3.394a285.687,285.687,0,0,0-21.593,26.8A2.419,2.419,0,0,0,33.6,211.9a2.451,2.451,0,0,0,3.284-.861Z"/><path class="a" d="M79.815,231.963a27.106,27.106,0,0,0-6.326,8.319,30.078,30.078,0,0,0-3.372,10.972,2.419,2.419,0,0,0,2.4,2.4,2.452,2.452,0,0,0,2.4-2.4,24.152,24.152,0,0,1,2.849-8.8,23.255,23.255,0,0,1,5.443-7.092,2.421,2.421,0,0,0,0-3.394,2.45,2.45,0,0,0-3.394,0Z"/><path class="a" d="M108.148,231.929c.294.186.58.38.86.587-.277-.2-.021-.015.111.095s.283.239.422.363a20.725,20.725,0,0,1,1.577,1.574,27.532,27.532,0,0,1,2.822,3.717,63.87,63.87,0,0,1,4.924,9.2,2.417,2.417,0,0,0,3.284.861,2.459,2.459,0,0,0,.861-3.283,62.741,62.741,0,0,0-5.221-9.646,25.6,25.6,0,0,0-7.217-7.612,2.4,2.4,0,1,0-2.423,4.145Z"/><path class="a" d="M24.411,268.861c13.669-1.575,27.4-2.7,41.1-3.986,18.924-1.77,37.851-3.513,56.768-5.365,7.054-.691,14.113-1.364,21.151-2.2,1.176-.14,2.554-.991,2.4-2.4-1.3-11.87-2.5-23.751-3.752-35.626-1.426-13.511-2.853-27.025-4.5-40.511-.608-4.965-1.191-9.949-2.06-14.876a2.4,2.4,0,0,0-2.315-1.762c-13.8,1.469-27.627,2.64-41.447,3.859q-26.876,2.37-53.768,4.543c-6.953.555-13.907,1.109-20.868,1.56a2.449,2.449,0,0,0-2.4,2.4c-.037,4.53.343,9.08.649,13.6.493,7.295,1.074,14.584,1.674,21.871,1.227,14.908,2.56,29.807,3.912,44.7.357,3.93.753,7.858,1.061,11.791a2.461,2.461,0,0,0,2.4,2.4,2.419,2.419,0,0,0,2.4-2.4c-.773-9.884-1.788-19.752-2.664-29.627-1.37-15.437-2.728-30.877-3.817-46.336-.375-5.312-.859-10.669-.815-16l-2.4,2.4c14.536-.941,29.055-2.205,43.571-3.426q26.592-2.238,53.167-4.666c6.451-.594,12.9-1.184,19.345-1.87l-2.314-1.762c.3,1.709.554,3.426.8,5.145q.109.78.215,1.561c.063.462.009.065,0-.024.019.139.037.278.056.417l.141,1.073q.242,1.848.471,3.695c.767,6.161,1.469,12.329,2.155,18.5,1.545,13.889,2.99,27.788,4.443,41.687.616,5.895,1.227,11.791,1.871,17.684l2.4-2.4c-14.913,1.768-29.89,3.056-44.84,4.466-18.573,1.751-37.151,3.455-55.723,5.231-6.153.588-12.313,1.144-18.454,1.852a2.473,2.473,0,0,0-2.4,2.4A2.415,2.415,0,0,0,24.411,268.861Z"/><path class="b" d="M131.546,208.3a8.183,8.183,0,0,0-4.566,4.54c-.664,2.218.735,4.66,2.725,5.845a12.285,12.285,0,0,0,6.73,1.287c-2.528-.39-4.11,2.68-4.474,5.212a19.044,19.044,0,0,0,1.707,11.263c2.16,4.467,10.363,5.552,10.363,5.552,4.015.828,7.407-.369,9.247-3.519s1.953-6.979,2.016-10.626c.073-4.232.121-8.6-1.51-12.51-1.83-4.383-6.3-8.6-11.134-7.264C141.252,207.636,133.756,207.448,131.546,208.3Z"/><path class="b" d="M2.819,202.2a22.63,22.63,0,0,1,.539-10.753c.66-2.065,3.073-5.227,5.074-5.556a39.235,39.235,0,0,1,9.3-2.449,11.371,11.371,0,0,1,5.912.909c3.624,1.721,5.589,7.1,2.7,9.879-1.484,1.427-4.364,1.7-6.732,2.161,3.751,8.444,4.81,23.992-.313,26.031-7.583,1.592-11.3-3.6-13.336-9.277A63.984,63.984,0,0,1,2.819,202.2Z"/><path class="a" d="M130.908,205.988c-4.033,1.686-7.827,5.825-6.024,10.47,1.853,4.773,6.9,6.037,11.551,5.916,3.142-.082,3.025-4.5,0-4.8-3.45-.344-5.74,2.885-6.551,5.844a20.543,20.543,0,0,0,.222,10.441,12.378,12.378,0,0,0,4.825,7.376,19.46,19.46,0,0,0,6.356,2.659c4.618,1.142,9.855,1.2,13.111-2.855,2.361-2.939,3.019-6.759,3.212-10.427a58.13,58.13,0,0,0-.247-10.973,18.288,18.288,0,0,0-4.935-10.569,10.926,10.926,0,0,0-10.416-3.3h1.276a21.826,21.826,0,0,0-5.886-.463,19.921,19.921,0,0,0-6.494.684,2.461,2.461,0,0,0-1.677,2.952,2.421,2.421,0,0,0,2.953,1.676,6.344,6.344,0,0,1,2.245-.406c1.288-.1,2.583-.12,3.875-.1q1.566.025,3.123.166c.666.06-.472-.11.09.009.13.028.264.058.4.081a12.192,12.192,0,0,0,2.528-.138c2.694-.055,4.975,2.251,6.277,4.385,1.782,2.921,2.142,6.367,2.2,9.72.055,3.419.2,7.108-.693,10.435-.679,2.519-2.128,4.678-4.873,5.043a12.86,12.86,0,0,1-4.49-.475,14.973,14.973,0,0,1-5.5-2.247,5.625,5.625,0,0,1-1.967-2.578,15.464,15.464,0,0,1-1.2-5.188,13.219,13.219,0,0,1,.469-5.116,4.239,4.239,0,0,1,.825-1.512c.393-.415.347-.382.951-.322v-4.8c-2.321.06-5.546.022-6.839-2.312-1.073-1.937.821-3.907,2.588-4.646a2.479,2.479,0,0,0,1.676-2.952A2.414,2.414,0,0,0,130.908,205.988Z"/><path class="a" d="M18.475,199.146c3.663-1.152,8.137-.78,10.518-4.385,2.282-3.455.875-8.307-2-10.966-3.8-3.522-9.432-3.14-14.085-1.878-1.2.325-2.385.716-3.562,1.121a21.439,21.439,0,0,0-3.024,1.1,11.655,11.655,0,0,0-4.335,4.556c-2.552,4.47-2.252,10.314-1.3,15.185a58.306,58.306,0,0,0,2.165,7.68,41.8,41.8,0,0,0,2.409,5.987C7,220.836,9.753,223.7,13.432,224.7c3.562.966,7.774.577,9.82-2.8,1.928-3.185,2.053-7.46,1.895-11.067a45.623,45.623,0,0,0-2.527-13.341,2.463,2.463,0,0,0-2.953-1.676,2.421,2.421,0,0,0-1.676,2.952c1.952,5.439,3.131,12.224,2.09,17.758a14.47,14.47,0,0,1-.441,1.766c-.036.111-.293.779-.135.417a8.6,8.6,0,0,1-.4.769c-.088.156-.353.5-.084.17a5.622,5.622,0,0,1-.454.472c-.192.186.112-.084.132-.1a1.3,1.3,0,0,1-.3.183c-.186.022-.329.023-.646.057a7.4,7.4,0,0,1-6.864-2.819c-2-2.444-2.961-5.754-3.927-8.73-1.315-4.047-2.373-8.235-2.09-12.522a11.955,11.955,0,0,1,1.348-5.223,6.838,6.838,0,0,1,2.6-2.7c3.49-1.347,7.717-2.9,11.515-2.41a5.676,5.676,0,0,1,4.017,2.156,4.32,4.32,0,0,1,.868,3.6c-.346,1.1-1.429,1.478-2.71,1.791-1.757.43-3.58.571-5.309,1.115-2.937.924-1.683,5.559,1.276,4.629Z"/><path class="a" d="M39.021,171.977c2.7-6.564,5.5-13.557,11-18.316,3.106-2.688,7.106-4.237,10.985-5.431,4.4-1.353,8.917-2.255,13.416-3.192a97.207,97.207,0,0,0,14.563-3.829l-2.336-.617a55.216,55.216,0,0,0,22.562,13.983,38.116,38.116,0,0,0,25.42-1.274,36.483,36.483,0,0,0,12.3-8.292l-2.908.376a52.075,52.075,0,0,1,5.967,3.022c2.666,1.574,5.084-2.573,2.422-4.144a51.758,51.758,0,0,0-5.967-3.023,2.506,2.506,0,0,0-2.908.375,32.466,32.466,0,0,1-20.527,9.575,30.886,30.886,0,0,1-11.235-.859,46.4,46.4,0,0,1-11.254-4.961,50.619,50.619,0,0,1-10.48-8.172,2.359,2.359,0,0,0-2.336-.617c-8.845,3.333-18.389,4.157-27.418,6.851a37.745,37.745,0,0,0-12.546,5.927,32.171,32.171,0,0,0-8.051,9.735,104.781,104.781,0,0,0-5.3,11.607,2.415,2.415,0,0,0,1.676,2.952,2.461,2.461,0,0,0,2.953-1.676Z"/><path class="a" d="M54.539,270.427c-.412,10.812-.812,21.625-1.409,32.428q-.2,3.651-.423,7.3c-.184,3.086,4.617,3.075,4.8,0q.813-13.618,1.347-27.248.251-6.24.485-12.481c.118-3.089-4.682-3.084-4.8,0Z"/><path class="g" d="M278.4,256.571a61.925,61.925,0,0,1,8.241,19.241c3.1,12.481,3.12,25.542,3.119,38.439,0,19.822-1.035,41.037-14.342,55q.273,20.592.551,41.188H166.506a130.9,130.9,0,0,1-1.824-16.71c-.3-6.685.335-14.3,5.53-18.514l6.533-5.239c-3.413-1.354-6.712-2.54-10.03-4.145-2.554,3.34-7,5.551-11.186,4.757-.594-.112-1.567-.041-1.942-.515a1.043,1.043,0,0,1-.153-.269c-13.613-13.957-13.583-35.565-13.584-55.548,0-12.9.018-25.958,3.119-38.439,3.227-12.994,10.224-25.514,21.471-32.1a115.229,115.229,0,0,1,21.341-10.617c1.18-1.73,7.514-10.678,9.5-10.457,2.034.227,5.837,2.535,8.6,3.3,2.432.67,17.1,1,22,.111,3.667-.667,6.855-3.409,8.07-3.409,2.119,0,7.265,4.69,7.944,7.5a96.8,96.8,0,0,1,24.272,14.189A41.32,41.32,0,0,1,278.4,256.571Z"/><path class="b" d="M249.36,347.747c-5.263,1.91-12.088,4.467-16.706,6.334-5.355,2.164-13.753,3.226-20.627,5.331a25.082,25.082,0,0,0-9.731-3.939c-9.215-2.32-17.536-2.8-24.765-9.341a61.608,61.608,0,0,0-8.981,4.241c-3.116,1.854-7.27,6.064-10.414,10.091,8.822,7.019,16.776,8.023,26.1,12.853,3.451,1.787,5.439,4.359,7.926,7.442.134.454.7.846,1,1.211q1.9,2.307,3.838,4.58c-.566,1.934-.685,4.062-.224,4.965a4.18,4.18,0,0,0,5.089,2.127c-.943,3.273-.718,4.22,1.115,5.154a5.616,5.616,0,0,0,7.28-1.6c-.487,2.213,1.458,4.48,3.719,5.063s4.569-.637,6.5-1.949A49.375,49.375,0,0,0,234.865,385.2c1.494-2.456,2.828-5.109,5.046-6.938a20.465,20.465,0,0,1,5.438-2.885l19.17-7.813c3.356-1.368,6.1-1.768,7.814-5.02a41.888,41.888,0,0,0-6.289-6.434c-3.864-3.387-9.305-6.482-14.371-9.2C250.948,347.172,250.173,347.452,249.36,347.747Z"/><path class="a" d="M169.766,271.089c0,8.355.269,16.713.442,25.065q.157,7.578.3,15.157.054,3.114.093,6.229c.009.777.012,1.555.022,2.333a13.949,13.949,0,0,0,1.088,4.987,186.836,186.836,0,0,0,8.639,20.307c1.438,2.735,5.583.312,4.144-2.423a163.689,163.689,0,0,1-7.54-17.557,20.383,20.383,0,0,1-1.493-4.242,22.416,22.416,0,0,1-.053-2.732q-.031-3.026-.085-6.052c-.165-9.845-.4-19.689-.587-29.533-.074-3.846-.164-7.693-.166-11.539,0-3.088-4.8-3.094-4.8,0Z"/><path class="a" d="M255.681,271.089c0,8.464-.273,16.932-.448,25.394q-.156,7.557-.294,15.114-.052,3.084-.091,6.17c-.008.766-.008,1.533-.02,2.3a12.912,12.912,0,0,1-1.258,4.4,179.778,179.778,0,0,1-8.2,18.988c-1.438,2.732,2.7,5.161,4.144,2.423a175.479,175.479,0,0,0,7.735-17.7c1.129-2.876,2.357-5.556,2.381-8.7.014-1.89.041-3.781.07-5.671.16-10.2.4-20.4.6-30.6.078-4.038.174-8.077.176-12.116,0-3.088-4.8-3.093-4.8,0Z"/><path class="a" d="M251.036,344.6q-5.657,2.025-11.275,4.155c-3.489,1.321-6.954,2.973-10.56,3.943-7.4,1.99-15.791,1.286-22.268,5.979a2.47,2.47,0,0,0-.861,3.284,2.418,2.418,0,0,0,3.284.861c6.158-4.463,14.445-3.605,21.482-5.6,3.6-1.019,7.081-2.665,10.583-3.989q5.428-2.05,10.891-4.01a2.461,2.461,0,0,0,1.676-2.952,2.42,2.42,0,0,0-2.952-1.676Z"/><path class="a" d="M176.73,348.61c4.537,3.685,10.323,5.52,15.864,7.109s11.245,2.738,16.653,4.751a2.419,2.419,0,0,0,2.952-1.676,2.451,2.451,0,0,0-1.676-2.952c-5.182-1.93-10.643-3.055-15.956-4.554-4.862-1.371-10.616-2.964-14.443-6.072a2.471,2.471,0,0,0-3.394,0,2.418,2.418,0,0,0,0,3.394Z"/><path class="a" d="M168.516,373.515c-4.579,3.828-6.007,9.929-6.254,15.642a102.278,102.278,0,0,0,1.807,21.163A2.419,2.419,0,0,0,167.021,412a2.457,2.457,0,0,0,1.676-2.952,100.606,100.606,0,0,1-1.66-19.15c.123-4.758,1.045-9.784,4.873-12.985a2.419,2.419,0,0,0,0-3.394,2.451,2.451,0,0,0-3.394,0Z"/><path class="a" d="M273.08,371.045l.488,38.7c.039,3.086,4.839,3.094,4.8,0l-.488-38.7c-.039-3.086-4.839-3.1-4.8,0Z"/><path class="a" d="M203.944,394.853c1.6-2.647,3.132-5.334,4.8-7.941a41.341,41.341,0,0,1,5.366-7.056,2.4,2.4,0,0,0-3.394-3.394c-4.515,4.645-7.591,10.469-10.914,15.968a2.4,2.4,0,0,0,4.145,2.423Z"/><path class="a" d="M212.34,398.411c.2-.322.422-.63.647-.934.136-.183.7-.907.13-.179.15-.19.3-.381.449-.57.765-.963,1.551-1.909,2.343-2.85,1.346-1.6,2.718-3.18,4.081-4.766a2.4,2.4,0,0,0-3.394-3.394c-1.391,1.618-2.789,3.228-4.161,4.861a49.154,49.154,0,0,0-4.24,5.409,2.424,2.424,0,0,0,.861,3.284,2.451,2.451,0,0,0,3.284-.861Z"/><path class="a" d="M154.943,365.1a41.3,41.3,0,0,1,3.191-4.639,45,45,0,0,0,8.583,5.362c-2.555,3.339-7,5.55-11.188,4.756-.594-.112-1.567-.041-1.942-.515-.587-.743.017-2.095.367-2.975A16.011,16.011,0,0,1,154.943,365.1Z"/><path class="a" d="M274.934,367.974a14.759,14.759,0,0,0-2.6-5.429c-2.137,4.051-5.876,3.675-10.4,6.263,3.992,2.547,7.685,2.513,12.312,1.288a1.293,1.293,0,0,0,.689-.35,1.28,1.28,0,0,0,.145-1.035C275.038,368.462,274.99,368.217,274.934,367.974Z"/><path class="a" d="M56.939,287.045q14.04,0,28.078.02,19.174.018,38.349.032,8.639.006,17.277.008c3.089,0,3.094-4.8,0-4.8q-16.827,0-33.655-.02-18.4-.017-36.794-.032-6.628-.006-13.255-.008c-3.088,0-3.094,4.8,0,4.8Z"/><path class="a" d="M208.49,338.977c9.51-6.6,19.892-12.009,30.051-17.526,2.715-1.475.3-5.621-2.423-4.145-10.159,5.518-20.541,10.923-30.05,17.526a2.462,2.462,0,0,0-.861,3.284,2.42,2.42,0,0,0,3.283.861Z"/><path class="a" d="M206.853,368.143a67.757,67.757,0,0,0-11.105,15.185c-1.278,2.434-2.255,5.933-1.356,8.65a6.6,6.6,0,0,0,8.118,3.978L199.557,393c-.848,3.021-1.035,6.117,2.1,7.8a8.128,8.128,0,0,0,10.305-1.911l-4.012-2.335a6.213,6.213,0,0,0,3,6.775c2.711,1.545,5.8,1.064,8.423-.4a52.111,52.111,0,0,0,6.778-5,59.048,59.048,0,0,0,6.072-5.456,38.256,38.256,0,0,0,5.13-6.775c1.309-2.2,2.557-4.649,4.754-6.1,2.35-1.551,5.161-2.44,7.752-3.5l8.9-3.627c3.017-1.23,6.03-2.458,9.074-3.617,2.724-1.037,5-2.394,6.5-4.987,1.545-2.681-2.6-5.1-4.145-2.423a6.821,6.821,0,0,1-3.947,2.9c-2.408.9-4.78,1.877-7.16,2.847-5.27,2.148-10.567,4.238-15.809,6.453a17.228,17.228,0,0,0-6.243,4.037,39.717,39.717,0,0,0-4.244,6.3,41.649,41.649,0,0,1-9.862,10.422c-2.054,1.644-4.273,3.747-6.72,4.768-1.057.44-3.958.527-3.628-1.34a2.493,2.493,0,0,0-1.1-2.71,2.4,2.4,0,0,0-2.909.375,3.411,3.411,0,0,1-4.487,1.161,4.189,4.189,0,0,1-.424-.248c-.319-.212.224.218-.018-.021-.178-.176.136.4-.021-.051a.96.96,0,0,1,.121.439,11.628,11.628,0,0,1,.445-2.5,2.421,2.421,0,0,0-2.952-2.953,1.736,1.736,0,0,1-2-.472c-.449-.458.038.128-.27-.352-.25-.391.006.151-.034-.111-.064-.415,0,.617-.026-.254-.009-.254,0-.507.008-.761.121-2.521,1.491-4.594,2.749-6.7a62.742,62.742,0,0,1,8.585-11.144c2.131-2.236-1.257-5.635-3.394-3.394Z"/><path class="a" d="M246.233,346.739c5.615,3,11.458,5.815,16.51,9.737a48.107,48.107,0,0,1,6.412,5.943c1.537,1.728,3.748,4.54,3.531,7.015l.328-1.211q1.125-.665.167-.331-.416.1-.834.2c-.532.118-1.072.233-1.613.3a14.109,14.109,0,0,1-2.607.091,10.762,10.762,0,0,1-5.17-1.864c-2.614-1.664-5.024,2.489-2.423,4.145a15.905,15.905,0,0,0,11.082,2.312c1.744-.246,4.374-.454,5.389-2.121s.279-3.941-.394-5.618a25.638,25.638,0,0,0-6.689-8.969,60.819,60.819,0,0,0-9.379-7.2c-3.85-2.39-7.9-4.441-11.888-6.576-2.723-1.456-5.15,2.686-2.422,4.145Z"/><path class="a" d="M197.249,383.792c-3.873-4.818-7.522-10.494-13.236-13.267-7.625-3.7-15.868-5.818-22.864-10.768a2.42,2.42,0,0,0-3.283.861,2.452,2.452,0,0,0,.861,3.284c6.877,4.866,14.941,6.988,22.457,10.572a15.267,15.267,0,0,1,3.621,2.2,38.683,38.683,0,0,1,3.3,3.416c2,2.3,3.843,4.726,5.752,7.1a2.415,2.415,0,0,0,3.394,0,2.457,2.457,0,0,0,0-3.394Z"/><path class="a" d="M181.78,342.078a78.322,78.322,0,0,0-13,5.407,34.422,34.422,0,0,0-8.395,6.715,56.385,56.385,0,0,0-6.907,8.692c-1.675,2.654-4.684,8.506.063,9.818s10.027-.375,13.674-3.834c2.247-2.13-1.152-5.52-3.394-3.394a10.43,10.43,0,0,1-4.125,2.481,8.179,8.179,0,0,1-2.23.381,13.433,13.433,0,0,0-2.362-.214c-.216.151-.733-.8.25.511,1.236,1.643.208.585.426.448.138-.087.3-.869.366-1.049.2-.531-.069.08.191-.436.127-.253.25-.507.384-.757a31.213,31.213,0,0,1,2.107-3.321c3.245-4.56,7.314-9.124,12.19-11.8a70.792,70.792,0,0,1,12.04-5.023c2.923-.957,1.672-5.594-1.276-4.629Z"/><path class="a" d="M155.284,368.26c-8.75-8.955-11.6-21.512-12.522-33.621-.5-6.524-.511-13.072-.512-19.611,0-7.91-.018-15.835.657-23.723,1.142-13.346,4.6-27.347,13.545-37.725,4.412-5.118,10.041-8.556,15.927-11.752a110.589,110.589,0,0,1,10.2-4.9c1.671-.7,4.22-1.164,5.308-2.662.406-.56.791-1.135,1.2-1.7,1.3-1.805,2.458-3.334,3.931-5.023.675-.775,1.39-1.493,2.132-2.2.323-.31.055-.069.112-.108.13-.09.288-.169.408-.269.322-.269-.1.026-.092.026-.019,0-.987-.124-.444.042,2.783.849,5.3,2.5,8.122,3.214a26.044,26.044,0,0,0,4.844.537,117.508,117.508,0,0,0,14.717,0,20.8,20.8,0,0,0,7.453-1.716c1.251-.572,2.435-1.277,3.647-1.923.019-.01.368-.206.134-.076s.085-.064.094-.033c-.067-.236.489.275-.007-.025-.032-.02-.47.056-.49-.032,0,.021.5.138.551.157-.4-.144.247.145.37.215a13.383,13.383,0,0,1,4.786,4.8,5.905,5.905,0,0,0,.668,1.428c.629.815,1.791,1.073,2.709,1.466q2.532,1.083,5,2.319a96.876,96.876,0,0,1,9.56,5.473c3.024,1.967,5.813,4.244,8.783,6.276,10.669,7.3,16.385,20.065,18.95,32.344A127.879,127.879,0,0,1,287.28,303c.15,7.22.178,14.466-.075,21.685-.434,12.409-1.9,25.522-8.5,36.338a39.275,39.275,0,0,1-5.47,7.023c-2.161,2.21,1.23,5.608,3.394,3.394,14.91-15.251,15.534-38.12,15.529-58.148,0-22.467-.7-48.155-17.561-65.226a39.613,39.613,0,0,0-6.581-5.409c-2.667-1.727-5.1-3.839-7.76-5.6a100.682,100.682,0,0,0-17.72-9.244l1.676,1.676c-.695-2.527-2.693-4.72-4.64-6.387-1.771-1.518-4.222-3.419-6.713-2.7a18.072,18.072,0,0,0-3.385,1.69,15.054,15.054,0,0,1-4.312,1.644c-.085.017-.625.1-.318.055s-.3.034-.394.044c-.5.055-1.01.1-1.517.134-1.195.085-2.392.133-3.59.165a110.082,110.082,0,0,1-13.95-.368c-.1-.01-.655-.085-.249-.027s-.139-.022-.222-.04a11.014,11.014,0,0,1-1.193-.338c-1.393-.481-2.711-1.148-4.059-1.738-2.235-.978-4.612-2.11-6.841-.542a26.09,26.09,0,0,0-5.187,5.458c-1.362,1.739-2.687,3.51-3.934,5.334l1.434-1.1a120.889,120.889,0,0,0-16.393,7.569c-4.653,2.6-9.276,5.376-13.12,9.107-7.269,7.052-11.954,16.535-14.586,26.222-3.244,11.939-3.558,24.454-3.591,36.748-.027,10.472-.161,21,1.285,31.4,1.529,10.989,5.266,21.759,13.152,29.83,2.163,2.213,5.556-1.182,3.394-3.394Z"/><path class="d" d="M46.631,226.508a.631.631,0,0,0-1.2.252c-.14,3.328-1,6.724-3.735,8.62a17.58,17.58,0,0,1-1.547.977.633.633,0,0,0,.257,1.184,17.391,17.391,0,0,1,1.814.244c3.352.6,5.134,3.229,6.69,6.387a.639.639,0,0,0,1.208-.257c.114-3.5.942-6.723,3.736-8.663a17.314,17.314,0,0,1,1.547-.976.633.633,0,0,0-.257-1.184,17.457,17.457,0,0,1-1.814-.245C50.056,232.256,48.112,229.5,46.631,226.508Z"/><path class="f" d="M94.912,182.258c-6.769-.976-9.561-.278-12.632,1.117a20.961,20.961,0,0,0-8.42,7.118,20.331,20.331,0,0,0-3.024,6.533c-1.71,6.91-.971,13.861-.421,20.827.183,2.309-.27,5.821.629,7.956a8.493,8.493,0,0,0,4.4,4.585c3.264,1.645,4.69,1.913,8.485,1.408,0,0,23.017-2.682,25.988-3.888,3.226-1.31,4.529-2.581,5.511-4.967,1.291-3.135.256-6.519-.907-10.119-1.082-3.35-2.129-11.2-2.311-14.277-.082-1.381-3.273-11.546-10.531-14.059Z"/><path class="a" d="M95.55,179.943a31.515,31.515,0,0,0-9.778-.215,19.885,19.885,0,0,0-7.188,2.932,24.107,24.107,0,0,0-7.5,7.692,26.866,26.866,0,0,0-3.47,11.391,67.97,67.97,0,0,0,.093,12.312c.141,1.841.352,3.681.353,5.528a35.094,35.094,0,0,0,.2,4.906c.933,6.672,8.381,10.47,14.6,9.84,7.135-.724,14.277-1.706,21.36-2.821,3.774-.594,7.485-1.108,10.558-3.613a10.638,10.638,0,0,0,3.637-8.524c-.127-3.394-1.542-6.5-2.244-9.777-.586-2.734-1-5.511-1.309-8.288a26.356,26.356,0,0,0-.715-4.978,24.087,24.087,0,0,0-8.081-12.182,14.335,14.335,0,0,0-3.749-1.968,2.422,2.422,0,0,0-2.952,1.676,2.449,2.449,0,0,0,1.676,2.952,11.573,11.573,0,0,1,4.868,3.82,20.757,20.757,0,0,1,1.723,2.652c.458.82,1.118,2.215,1.284,2.636.259.659.5,1.325.7,2.005.075.258.131.52.2.779.191.694-.014-.673.007.052a62.2,62.2,0,0,0,.891,7.474,50.527,50.527,0,0,0,1.425,7.026c.88,2.917,2.356,6.336.847,9.3-1.38,2.707-4.568,3.393-7.551,3.919-7.021,1.236-13.5,1.983-20.617,2.829a32.431,32.431,0,0,1-3.612.334,10.122,10.122,0,0,1-6.636-2.724c-1.9-1.9-1.72-4.46-1.71-6.949.014-3.551-.5-7.1-.637-10.645a39.686,39.686,0,0,1,1.028-12.045,18.737,18.737,0,0,1,5.695-8.9,18.01,18.01,0,0,1,4.173-2.745,8.742,8.742,0,0,1,1.218-.524c.484-.181.976-.341,1.476-.473a22.454,22.454,0,0,1,8.458-.051,2.483,2.483,0,0,0,2.953-1.676,2.418,2.418,0,0,0-1.677-2.953Z"/><path class="a" d="M159.784,76.215a3.872,3.872,0,0,1,5.453.6,7.074,7.074,0,0,1,.818,3.833,22,22,0,0,1-.279,4.477c-.949,5.438-3.745,12.008-9.793,13.08a2.42,2.42,0,0,0-1.676,2.952,2.454,2.454,0,0,0,2.952,1.677c8.7-1.544,12.852-11.414,13.518-19.287.329-3.885.12-8.506-3.19-11.113a8.8,8.8,0,0,0-11.2.385,2.42,2.42,0,0,0,0,3.4,2.452,2.452,0,0,0,3.394,0Z"/></svg>