<?xml version="1.0" encoding="iso-8859-1"?>
<!-- Uploaded to: SVG Repo, www.svgrepo.com, Generator: SVG Repo Mixer Tools -->
<svg version="1.1" id="Layer_1" xmlns="http://www.w3.org/2000/svg" xmlns:xlink="http://www.w3.org/1999/xlink" 
	 viewBox="0 0 512 512" xml:space="preserve">
<path style="fill:#4BAF78;" d="M472.375,327.629h-40.668v-39.722c0-97.202-78.505-175.999-175.707-175.999
	S80.293,190.706,80.293,287.907v39.722H39.625v23.984h432.75V327.629z"/>
<rect x="151.994" y="311.91" style="fill:#FFFFFF;" width="208.001" height="40.001"/>
<path style="fill:#FCBB3B;" d="M80.293,287.907c0-97.202,78.505-175.999,175.707-175.999s175.707,78.798,175.707,175.999v39.722
	h23.984v-39.722c0-110.456-89.234-199.999-199.69-199.999S56.31,177.451,56.31,287.907v39.722h23.984V287.907z"/>
<g>
	<rect x="151.994" y="239.907" style="fill:#75C0C7;" width="208.001" height="24.005"/>
	<rect x="151.994" y="287.906" style="fill:#75C0C7;" width="208.001" height="24.005"/>
</g>
<rect x="151.994" y="263.911" style="fill:#589095;" width="208.001" height="24.005"/>
<path style="fill:#1E834E;" d="M152.244,351.613v-63.706c0-84.863,59.944-155.685,139.876-172.301
	c-11.623-2.416-23.575-3.698-35.914-3.698c-97.202,0-175.913,78.798-175.913,175.999v39.722H39.625v23.984H152.244z"/>
<rect x="160.003" y="183.91" style="fill:#FCBB3B;" width="191.995" height="31.999"/>
<path style="fill:#BD8C2C;" d="M175.999,215.908h-16v-31.999h31.999l0,0C178.744,188.326,171.58,202.653,175.999,215.908
	L175.999,215.908z"/>
<rect y="352.922" style="fill:#E0DCCD;" width="512" height="78.99"/>
<polygon style="fill:#A8A59A;" points="137.333,431.906 0,431.906 0,352.92 287.998,352.92 "/>
<rect y="344.309" width="512" height="15.642"/>
<path d="M464.033,311.987h-15.642v-24.081c0-105.967-86.307-192.178-192.391-192.178S63.609,181.939,63.609,287.908v24.081H47.967
	v-24.081c0-114.593,93.323-207.82,208.033-207.82s208.033,93.227,208.033,207.82V311.987z"/>
<rect x="183.527" y="303.641" width="16.684" height="15.642"/>
<rect x="311.788" y="303.641" width="16.684" height="15.642"/>
<rect x="207.511" y="303.641" width="96.978" height="15.642"/>
<rect x="183.527" y="255.674" width="144.945" height="15.642"/>
<path d="M143.902,231.694v104.277h15.642v-16.684h16.684v-15.642h-16.684v-8.342h192.912v8.342h-16.684v15.642h16.684v16.684h15.642
	V231.694H143.902z M159.544,279.661v-8.342h16.684v-15.642h-16.684v-8.342h192.912v8.342h-16.684v15.642h16.684v8.342H159.544z"/>
<path d="M440.049,320.33v-32.423c0-101.358-82.564-183.819-184.049-183.819S71.951,186.548,71.951,287.908v32.423H39.625v15.642
	h47.967v-48.064c0-29.019,7.399-56.345,20.411-80.196h44.175v16.017h207.641v-16.017h44.178c13.011,23.85,20.41,51.176,20.41,80.196
	v48.064h47.967v-15.642h-32.326V320.33z M344.178,208.087H167.82v-16.358h176.357L344.178,208.087L344.178,208.087z
	 M359.819,192.069v-15.981H152.179v15.981h-34.483c30.448-43.687,81.085-72.34,138.306-72.34s107.858,28.654,138.306,72.34H359.819z
	"/>
<g>
	<rect x="224.196" y="144.097" style="fill:#FFFFFF;" width="15.642" height="15.642"/>
	<rect x="248.179" y="144.097" style="fill:#FFFFFF;" width="15.642" height="15.642"/>
	<rect x="272.163" y="144.097" style="fill:#FFFFFF;" width="15.642" height="15.642"/>
</g>
<rect x="47.967" y="375.592" width="39.625" height="15.642"/>
<rect x="87.593" y="392.276" width="80.293" height="15.642"/>
<rect x="32.326" y="407.918" width="15.642" height="15.642"/>
<rect x="215.853" y="407.918" width="136.603" height="15.642"/>
<rect x="191.87" y="368.293" width="63.609" height="15.642"/>
<rect x="255.479" y="383.934" width="16.684" height="15.642"/>
<rect x="376.44" y="383.934" width="23.984" height="15.642"/>
<rect x="400.424" y="399.576" width="47.967" height="15.642"/>
<rect x="488.016" y="368.293" width="15.642" height="15.642"/>
</svg>