<svg xmlns="http://www.w3.org/2000/svg" width="22" height="22" viewBox="0 0 22 22">
<defs>
    <style>
      .cls-1 {
        fill: none;
      }

      .cls-2 {
        fill: #066cfa;
      }
    </style>
  </defs>
    <g data-name="Group 7455">
        <g class="cls-2" data-name="Group 7434">
            <path data-name="Path 3484" d="M14.125 0H1.875A1.877 1.877 0 0 0 0 1.875v12.25A1.877 1.877 0 0 0 1.875 16h12.25A1.877 1.877 0 0 0 16 14.125V1.875A1.877 1.877 0 0 0 14.125 0zm.625 14.125a.626.626 0 0 1-.625.625h-3.562V9.656h1.931l.319-1.937h-2.25V6.375a.922.922 0 0 1 .938-.937h1.281V3.5H11.5a2.875 2.875 0 0 0-2.874 2.88v1.339H6.75v1.937h1.876v5.094H1.875a.626.626 0 0 1-.625-.625V1.875a.626.626 0 0 1 .625-.625h12.25a.626.626 0 0 1 .625.625z" style="fill:#0F76D7" transform="translate(3 3)"  />
        </g>
        <path data-name="Rectangle 6583" style="fill:none" d="M0 0h22v22H0z"/>
    </g>
</svg>
