<svg xmlns="http://www.w3.org/2000/svg" width="22" height="22" viewBox="0 0 22 22">
  <defs>
    <style>
      .cls-1 {
        fill: none;
      }

      .cls-2 {
        fill: #0F76D7;
      }
    </style>
  </defs>
  <g id="Instagram" transform="translate(-920 -1059)">
    <rect id="Rectangle_6584" data-name="Rectangle 6584" class="cls-1" width="22" height="22" transform="translate(920 1059)"/>
    <g class="cls-2" id="instagram-2" data-name="instagram" transform="translate(922.995 1062)">
      <g id="Group_130414" data-name="Group 130414" transform="translate(0.005)">
        <g id="Group_130413" data-name="Group 130413" transform="translate(0)">
          <path id="Path_144560" data-name="Path 144560" d="M12,0H4A4.012,4.012,0,0,0,0,4v8a4.012,4.012,0,0,0,4,4h8a4.012,4.012,0,0,0,4-4V4A4.012,4.012,0,0,0,12,0Zm2.667,12a2.67,2.67,0,0,1-2.667,2.667h-8A2.67,2.67,0,0,1,1.338,12V4A2.67,2.67,0,0,1,4.005,1.333h8A2.669,2.669,0,0,1,14.672,4v8Z" transform="translate(-0.005)"/>
        </g>
      </g>
      <g id="Group_130416" data-name="Group 130416" transform="translate(11.339 2.667)">
        <g id="Group_130415" data-name="Group 130415">
          <circle id="Ellipse_1916" data-name="Ellipse 1916" cx="1" cy="1" r="1"/>
        </g>
      </g>
      <g id="Group_130418" data-name="Group 130418" transform="translate(4.005 4)">
        <g id="Group_130417" data-name="Group 130417">
          <path id="Path_144561" data-name="Path 144561" d="M106.4,102.4a4,4,0,1,0,4,4A4,4,0,0,0,106.4,102.4Zm0,6.667a2.667,2.667,0,1,1,2.667-2.667A2.667,2.667,0,0,1,106.4,109.067Z" transform="translate(-102.405 -102.4)"/>
        </g>
      </g>
    </g>
  </g>
</svg>
