<?xml version="1.0" encoding="UTF-8"?>
<svg version="1.1" xmlns="http://www.w3.org/2000/svg" width="42" height="35">
<path d="M0 0 C2.8203125 -0.29296875 2.8203125 -0.29296875 6.125 -0.1875 C7.76855469 -0.14689453 7.76855469 -0.14689453 9.4453125 -0.10546875 C10.70988281 -0.05326172 10.70988281 -0.05326172 12 0 C10.35821283 5.22670219 7.10311535 9.22470579 3.875 13.5625 C-0.97066772 20.02718903 -0.97066772 20.02718903 -5.28515625 26.84765625 C-6.22681641 28.46994141 -6.22681641 28.46994141 -7.1875 30.125 C-7.69667969 31.07632812 -8.20585937 32.02765625 -8.73046875 33.0078125 C-11.98994949 35.8689746 -14.74471459 35.37820119 -18.9465332 35.17138672 C-19.62417725 35.1148291 -20.30182129 35.05827148 -21 35 C-22.50884213 31.56631406 -24.00553401 28.12746451 -25.5 24.6875 C-25.92925781 23.71103516 -26.35851562 22.73457031 -26.80078125 21.72851562 C-27.20683594 20.79072266 -27.61289062 19.85292969 -28.03125 18.88671875 C-28.59682617 17.59060669 -28.59682617 17.59060669 -29.17382812 16.26831055 C-30 14 -30 14 -30 11 C-26.7 11 -23.4 11 -20 11 C-18.35 14.3 -16.7 17.6 -15 21 C-12.87433003 18.06298275 -10.74943736 15.12540862 -8.625 12.1875 C-8.02171875 11.35412109 -7.4184375 10.52074219 -6.796875 9.66210938 C-6.21679688 8.85966797 -5.63671875 8.05722656 -5.0390625 7.23046875 C-4.50490723 6.49207764 -3.97075195 5.75368652 -3.42041016 4.99291992 C-2.2495259 3.35009967 -1.11904194 1.67856292 0 0 Z " fill="#2092D9" transform="translate(30,0)"/>
</svg>
