<?xml version="1.0" encoding="UTF-8"?>
<svg version="1.1" xmlns="http://www.w3.org/2000/svg" width="43" height="48">
<path d="M0 0 C0.99 0.33 1.98 0.66 3 1 C3 4.3 3 7.6 3 11 C6.3 11 9.6 11 13 11 C13 9.02 13 7.04 13 5 C15.475 5.495 15.475 5.495 18 6 C18.06457048 11.66785314 18.05738538 17.33209 18 23 C17.99419922 23.83273438 17.98839844 24.66546875 17.98242188 25.5234375 C17.9537761 27.97551545 17.88842109 30.42397643 17.8125 32.875 C17.80677979 33.64118652 17.80105957 34.40737305 17.79516602 35.19677734 C17.70703125 37.3671875 17.70703125 37.3671875 17 41 C14.81640625 42.87109375 14.81640625 42.87109375 12 44 C11.05382813 44.38542969 10.10765625 44.77085938 9.1328125 45.16796875 C8.14023437 45.50441406 7.14765625 45.84085938 6.125 46.1875 C5.13757813 46.53167969 4.15015625 46.87585937 3.1328125 47.23046875 C-3.99570152 48.98148778 -9.29946684 47.52552418 -15.9375 45 C-17.10635742 44.57074219 -17.10635742 44.57074219 -18.29882812 44.1328125 C-20.20294317 43.43191126 -22.1020195 42.71734696 -24 42 C-24.94014291 29.97960136 -25.11114233 18.05276854 -25 6 C-23.35 5.67 -21.7 5.34 -20 5 C-20 6.98 -20 8.96 -20 11 C-16.7 11 -13.4 11 -10 11 C-10 7.7 -10 4.4 -10 1 C-6.85658007 -0.57170996 -3.44228549 -0.23175783 0 0 Z " fill="#F9CE34" transform="translate(25,0)"/>
<path d="M0 0 C5.61 0 11.22 0 17 0 C17 1.32 17 2.64 17 4 C15.02 4 13.04 4 11 4 C11 9.94 11 15.88 11 22 C9.35 22 7.7 22 6 22 C6 16.06 6 10.12 6 4 C4.02 4 2.04 4 0 4 C0 2.68 0 1.36 0 0 Z " fill="#FEF9E2" transform="translate(12,17)"/>
</svg>
