<?xml version="1.0" encoding="UTF-8"?>
<svg version="1.1" xmlns="http://www.w3.org/2000/svg" width="36" height="36">
<path d="M0 0 C1.32 0 2.64 0 4 0 C4.17273438 0.62648437 4.34546875 1.25296875 4.5234375 1.8984375 C5.44862999 4.58913493 6.32114284 6.69262597 8 9 C11.2901805 10.37692507 14.45465306 10.79025619 18 11 C18.6875 13.33203125 18.6875 13.33203125 19 16 C17.75 17.44921875 17.75 17.44921875 16 18.6875 C14.23695151 20.121597 14.23695151 20.121597 13 22 C12.88110853 24.75573434 13.22549248 27.12746239 13.765625 29.828125 C13.84296875 30.54484375 13.9203125 31.2615625 14 32 C13.34 32.66 12.68 33.32 12 34 C8.55834679 33.64700993 6.93127462 32.95418308 4 31 C0.16896958 31.31925253 -1.76680553 31.84453702 -5 34 C-7.125 33.8125 -7.125 33.8125 -9 33 C-10.06511448 29.80465655 -9.87450182 28.75499639 -9.25 25.5625 C-8.86940283 23.19631157 -8.86940283 23.19631157 -9 21 C-11.30302869 18.6908334 -11.30302869 18.6908334 -14 17 C-14.8125 14.25 -14.8125 14.25 -15 12 C-11.91111478 9.94074319 -11.29064073 9.7609626 -7.8125 9.875 C-5.9253125 9.936875 -5.9253125 9.936875 -4 10 C-3.79503906 9.36191406 -3.59007812 8.72382813 -3.37890625 8.06640625 C-3.10949219 7.24011719 -2.84007812 6.41382813 -2.5625 5.5625 C-2.16224609 4.32693359 -2.16224609 4.32693359 -1.75390625 3.06640625 C-1 1 -1 1 0 0 Z " fill="#101010" transform="translate(16,1)"/>
</svg>
