<?xml version="1.0" encoding="UTF-8"?>
<svg version="1.1" xmlns="http://www.w3.org/2000/svg" width="136" height="136">
<path d="M0 0 C14.10565321 10.96675785 23.48700027 26.04447651 26.03125 43.8984375 C27.72605774 63.22629118 24.14429126 80.64830588 12.15625 96.2734375 C0.9991778 109.33276914 -12.95081519 117.88248128 -29.96875 120.8984375 C-50.98832028 122.31158983 -69.34994669 118.97886357 -85.73046875 104.984375 C-98.70434025 92.89354187 -107.45233297 77.44930381 -108.20703125 59.46484375 C-108.67450021 38.39083783 -103.1302395 20.79053691 -88.41552734 5.33349609 C-64.36335979 -18.52385133 -26.70947335 -18.90749561 0 0 Z M-85.96875 10.8984375 C-86.60683594 11.51332031 -87.24492188 12.12820312 -87.90234375 12.76171875 C-99.36412664 24.68299405 -103.47177509 40.48042373 -103.31835938 56.55957031 C-102.85901896 73.06478858 -95.56618761 88.17090043 -83.96875 99.8984375 C-68.69745116 113.2841034 -52.23396594 116.90534118 -32.56640625 116.09375 C-18.38919063 115.02779394 -4.88439328 106.711404 5.03125 96.8984375 C18.13416309 80.84533435 22.67476304 64.36839242 21.03125 43.8984375 C19.00079662 29.87399187 11.85113683 18.75212773 2.03125 8.8984375 C1.41636719 8.26035156 0.80148438 7.62226563 0.16796875 6.96484375 C-11.4615885 -4.21646504 -27.33853977 -8.6279003 -43.10864258 -8.52368164 C-60.26735654 -7.97320223 -73.93704007 -1.09199726 -85.96875 10.8984375 Z " fill="#E0E7ED" transform="translate(108.96875,14.1015625)"/>
<path d="M0 0 C1.32 0 2.64 0 4 0 C4.1717711 4.02063161 4.33642003 8.04152747 4.5 12.0625 C4.54769531 13.17689453 4.59539063 14.29128906 4.64453125 15.43945312 C4.98721126 23.98197628 5 32.43291395 5 41 C17.87 41 30.74 41 44 41 C44.66 42.32 45.32 43.64 46 45 C45 46 45 46 43.17137146 46.12025452 C42.37417191 46.11803391 41.57697235 46.11581329 40.75561523 46.11352539 C39.85475693 46.11344986 38.95389862 46.11337433 38.02574158 46.11329651 C37.04658279 46.10813522 36.06742401 46.10297394 35.05859375 46.09765625 C34.06118668 46.0962413 33.0637796 46.09482635 32.03614807 46.09336853 C28.83656876 46.08775114 25.63705831 46.07519571 22.4375 46.0625 C20.27408955 46.05748724 18.11067801 46.05292395 15.94726562 46.04882812 C10.63148675 46.03777607 5.31574829 46.02102104 0 46 C-0.64711386 34.95189429 -1.16477705 23.94627945 -1.125 12.875 C-1.12886719 11.72902344 -1.13273437 10.58304688 -1.13671875 9.40234375 C-1.13542969 8.31824219 -1.13414063 7.23414063 -1.1328125 6.1171875 C-1.13168457 5.15409668 -1.13055664 4.19100586 -1.12939453 3.19873047 C-1 1 -1 1 0 0 Z " fill="#606161" transform="translate(45,43)"/>
<path d="M0 0 C5.28 0 10.56 0 16 0 C17.42910833 4.287325 18.27673339 7.07971175 18.625 11.375 C18.69976562 12.24898437 18.77453125 13.12296875 18.8515625 14.0234375 C18.90054688 14.67570312 18.94953125 15.32796875 19 16 C17.35 16 15.7 16 14 16 C13.34 14.02 12.68 12.04 12 10 C11.24074219 10.98742188 10.48148438 11.97484375 9.69921875 12.9921875 C8.69554819 14.28664112 7.69162894 15.58090193 6.6875 16.875 C6.18798828 17.52597656 5.68847656 18.17695312 5.17382812 18.84765625 C4.68720703 19.47285156 4.20058594 20.09804687 3.69921875 20.7421875 C3.03152466 21.60626221 3.03152466 21.60626221 2.3503418 22.48779297 C1 24 1 24 -2 26 C-2.48210937 25.57847656 -2.96421875 25.15695313 -3.4609375 24.72265625 C-4.40839844 23.90087891 -4.40839844 23.90087891 -5.375 23.0625 C-6.00148438 22.51722656 -6.62796875 21.97195312 -7.2734375 21.41015625 C-8.95632334 19.93041376 -8.95632334 19.93041376 -11 19 C-11.226875 19.515625 -11.45375 20.03125 -11.6875 20.5625 C-12.83954222 22.70200698 -14.0384937 24.72262276 -15.375 26.75 C-15.97441406 27.67039062 -15.97441406 27.67039062 -16.5859375 28.609375 C-18 30 -18 30 -22 30 C-22.44264743 27.36926586 -22.350849 25.58690792 -20.96875 23.27490234 C-19.52995234 21.36451014 -18.03642431 19.52026168 -16.5 17.6875 C-15.97535156 17.04232422 -15.45070313 16.39714844 -14.91015625 15.73242188 C-13.61758026 14.14607861 -12.31020194 12.57181694 -11 11 C-10.0925 11.61875 -9.185 12.2375 -8.25 12.875 C-4.95501152 15.11846968 -4.95501152 15.11846968 -1 17 C1.97 13.04 4.94 9.08 8 5 C5.36 5 2.72 5 0 5 C-0.33 4.01 -0.66 3.02 -1 2 C-0.67 1.34 -0.34 0.68 0 0 Z " fill="#676767" transform="translate(74,49)"/>
<path d="M0 0 C0.66 0.33 1.32 0.66 2 1 C-2.29 5.29 -6.58 9.58 -11 14 C-11.66 13.67 -12.32 13.34 -13 13 C-4.738041 3.40546697 -4.738041 3.40546697 0 0 Z " fill="#E7EDF1" transform="translate(27,14)"/>
</svg>
