<svg width="16" height="18" viewBox="0 0 16 18" fill="none" xmlns="http://www.w3.org/2000/svg">
<path d="M8.05935 0.867188C3.6808 0.867188 0.118604 4.42939 0.118604 8.80788C0.118604 10.3035 0.533486 11.7509 1.32101 13.0105L0.0316388 16.4561C-0.0368267 16.6391 0.00785288 16.8453 0.14603 16.9834C0.241274 17.0786 0.36873 17.1295 0.49873 17.1295C0.557372 17.1295 0.616512 17.1192 0.673409 17.0978L4.23192 15.7662C5.39992 16.4096 6.71792 16.7486 8.0593 16.7486C12.4379 16.7486 16 13.1864 16 8.80788C16.0001 4.42939 12.4379 0.867188 8.05935 0.867188Z" fill="#1BA401"/>
<path d="M11.8711 11.5214C11.6493 12.3099 10.8204 12.8821 9.90016 12.8821C9.81015 12.8821 9.71924 12.8765 9.63133 12.8656C8.51279 12.7047 7.20372 11.9373 6.12707 10.81C4.99328 9.72721 4.22585 8.41834 4.07411 7.30878C3.92052 6.18581 4.42302 5.34836 5.41814 5.06852C5.46925 5.05416 5.5233 5.04688 5.5788 5.04688C6.16173 5.04688 6.85611 5.87066 7.09731 6.46121C7.25439 6.84583 7.24247 7.14213 7.0629 7.3182C6.61232 7.75981 6.44437 8.02829 6.46377 8.27587C6.48551 8.55178 6.74232 8.87057 7.17859 9.32794C7.23424 9.38638 7.30874 9.46417 7.39241 9.54819C7.47055 9.62603 7.54545 9.69779 7.61167 9.76112C8.09871 10.2256 8.41675 10.4773 8.70248 10.4773C8.94009 10.4772 9.1977 10.3088 9.62126 9.87666C9.68543 9.81123 9.80377 9.73329 10.0031 9.73329C10.5288 9.73329 11.2707 10.2463 11.6337 10.7255C11.8538 11.0158 11.9358 11.291 11.8711 11.5214Z" fill="white"/>
</svg>
