<svg xmlns="http://www.w3.org/2000/svg" width="22" height="22" viewBox="0 0 22 22">
    <g data-name="Group 7454">
        <path data-name="Forma 1" d="M1270.6 962.02V962h-1.2v.02a9 9 0 0 0-8.38 8.379h-.02v1.2h.02a9 9 0 0 0 8.38 8.379V980h1.2v-.021a9 9 0 0 0 8.379-8.379h.021v-1.2h-.021a9 9 0 0 0-8.379-8.38zm-3.966 1.941a9.548 9.548 0 0 0-1.411 2.838h-1.8a7.848 7.848 0 0 1 3.211-2.838zM1262.8 968h2.109a14.314 14.314 0 0 0-.3 2.4h-2.389a7.72 7.72 0 0 1 .58-2.4zm-.575 3.6h2.389a14.3 14.3 0 0 0 .3 2.4h-2.114a7.718 7.718 0 0 1-.577-2.4zm1.2 3.6h1.8a9.532 9.532 0 0 0 1.412 2.838 7.844 7.844 0 0 1-3.212-2.838zm5.975 3.522c-1.233-.329-2.3-1.654-2.94-3.522h2.94zm0-4.722h-3.277a13.427 13.427 0 0 1-.311-2.4h3.588zm0-3.6h-3.588a13.43 13.43 0 0 1 .311-2.4h3.277zm0-3.6h-2.94c.645-1.869 1.707-3.194 2.94-3.522zm7.174 0h-1.8a9.531 9.531 0 0 0-1.413-2.838 7.844 7.844 0 0 1 3.213 2.838zm-5.974-3.522c1.233.328 2.3 1.654 2.94 3.522h-2.94zm0 4.722h3.276a13.451 13.451 0 0 1 .312 2.4h-3.588zm0 3.6h3.588a13.359 13.359 0 0 1-.312 2.4h-3.276zm0 7.122V975.2h2.94c-.64 1.868-1.707 3.193-2.94 3.522zm2.766-.684a9.568 9.568 0 0 0 1.413-2.838h1.8a7.84 7.84 0 0 1-3.213 2.838zM1277.2 974h-2.11a14.317 14.317 0 0 0 .3-2.4h2.388a7.731 7.731 0 0 1-.578 2.4zm-1.814-3.6a14.327 14.327 0 0 0-.3-2.4h2.11a7.733 7.733 0 0 1 .574 2.4z" transform="translate(-1259 -960)" style="fill:#0F76D7"/>
        <path data-name="Rectangle 6582" style="fill:none" d="M0 0h22v22H0z"/>
    </g>
</svg>
