<svg xmlns="http://www.w3.org/2000/svg" width="26.106" height="21.211" viewBox="0 0 26.106 21.211">
    <g data-name="Group 126998">
        <g data-name="Group 6856">
            <path data-name="-e-favorite-icn" d="M619.048 453.122a7.416 7.416 0 0 0-10.3 0l-.659.643-.659-.643a7.415 7.415 0 0 0-10.3 0 7.067 7.067 0 0 0-.042 10.01c2.515 2.727 9.93 8.62 10.245 8.87a1.164 1.164 0 0 0 .726.253h.025a1.123 1.123 0 0 0 .751-.252c.315-.249 7.732-6.142 10.247-8.87a7.067 7.067 0 0 0-.034-10.011z" transform="translate(-595.04 -451.043)" style="fill:#da4f4f"/>
            <g data-name="Group 126997">
                <path data-name="Path 132627" d="M13.26 35.642a.673.673 0 0 0-.952 0L4.247 43.7l-3.1-3.1a.673.673 0 1 0-.952.952l3.574 3.574a.673.673 0 0 0 .952 0l8.537-8.537a.673.673 0 0 0 .002-.947z" transform="translate(6.324 -31.077)" style="fill:#fff"/>
            </g>
        </g>
    </g>
</svg>
