<svg xmlns="http://www.w3.org/2000/svg" width="22" height="22" viewBox="0 0 22 22">
  <defs>
    <style>
      .cls-1 {
        fill: none;
      }
      .cls-2 {
        fill: #0F76D7;
      }
    </style>
  </defs>
  <g id="GST" transform="translate(-919 -795)">
    <rect id="Rectangle_6580" data-name="Rectangle 6580" class="cls-1" width="22" height="22" transform="translate(919 795)"/>
    <g class="cls-2" id="tax" transform="translate(920.998 797)">
      <path id="Path_144528" data-name="Path 144528" d="M17.475,6.786H15.435V3.938a.531.531,0,0,0-.154-.373S11.892.141,11.872.124a.529.529,0,0,0-.28-.12c-.043,0,.391,0-7.969,0A1.056,1.056,0,0,0,2.568,1.055v5.73H.529A.527.527,0,0,0,0,7.313v7.875a.527.527,0,0,0,.527.527H2.568v1.23A1.056,1.056,0,0,0,3.623,18H14.381a1.056,1.056,0,0,0,1.055-1.055v-1.23h2.039A.527.527,0,0,0,18,15.188V7.313A.527.527,0,0,0,17.475,6.786ZM12.06,1.836l1.575,1.575H12.06ZM3.623,1.055h7.383V3.938a.527.527,0,0,0,.527.527h2.848v2.32H3.623Zm10.758,15.89H3.623v-1.23H14.381Zm2.566-2.285H1.057V7.84h15.89Z" transform="translate(0 0)"/>
      <path id="Path_144529" data-name="Path 144529" d="M76.342,249.005H73.529a.527.527,0,1,0,0,1.055h.879v3.41a.527.527,0,0,0,1.055,0v-3.41h.879a.527.527,0,1,0,0-1.055Z" transform="translate(-70.434 -240.251)"/>
      <path id="Path_144530" data-name="Path 144530" d="M199.645,249.4a.618.618,0,0,0-1.15-.014l-1.473,3.894a.527.527,0,1,0,.986.373l.19-.5h1.728l.188.5a.527.527,0,1,0,.987-.371Zm-1.047,2.7.468-1.238.465,1.238Z" transform="translate(-190.06 -240.25)"/>
      <path id="Path_144531" data-name="Path 144531" d="M331.892,249.224l-.977,1.368-.977-1.368a.527.527,0,1,0-.858.613l1.187,1.662-1.187,1.662a.527.527,0,1,0,.858.613l.977-1.368.977,1.368a.527.527,0,1,0,.858-.613l-1.187-1.662,1.187-1.662a.527.527,0,1,0-.858-.613Z" transform="translate(-317.413 -240.249)"/>
      <path id="Path_144532" data-name="Path 144532" d="M140.061,65h-2.531a.527.527,0,1,0,0,1.055h2.531a.527.527,0,0,0,0-1.055Z" transform="translate(-132.184 -62.719)"/>
      <path id="Path_144533" data-name="Path 144533" d="M140.061,129.005h-2.531a.527.527,0,1,0,0,1.055h2.531a.527.527,0,0,0,0-1.055Z" transform="translate(-132.184 -124.469)"/>
    </g>
  </g>
</svg>
