<svg width="19" height="18" viewBox="0 0 19 18" fill="none" xmlns="http://www.w3.org/2000/svg">
<mask id="mask0_853_15399" style="mask-type:luminance" maskUnits="userSpaceOnUse" x="0" y="0" width="19" height="18">
<path d="M18.3844 17.4V0.6H1.58438V17.4H18.3844Z" fill="white" stroke="white" stroke-width="1.2"/>
</mask>
<g mask="url(#mask0_853_15399)">
<path d="M9.99219 16.5312C8.11719 13.7188 4.83594 9.90625 4.83594 6.625C4.83594 3.78184 7.14903 1.46875 9.99219 1.46875C12.8353 1.46875 15.1484 3.78184 15.1484 6.625C15.1484 9.90625 11.8672 13.7188 9.99219 16.5312Z" stroke="#111111" stroke-width="1.2" stroke-miterlimit="10" stroke-linecap="round" stroke-linejoin="round"/>
<path d="M9.99219 8.97266C8.69991 8.97266 7.64844 7.92119 7.64844 6.62891C7.64844 5.33662 8.69991 4.28516 9.99219 4.28516C11.2845 4.28516 12.3359 5.33662 12.3359 6.62891C12.3359 7.92119 11.2845 8.97266 9.99219 8.97266Z" stroke="#111111" stroke-width="1.2" stroke-miterlimit="10" stroke-linecap="round" stroke-linejoin="round"/>
</g>
</svg>
